<svg xmlns="http://www.w3.org/2000/svg" viewBox="0 0 24 24" fill="none">
  <path d="M12 2C8.134 2 5 2.895 5 4V20C5 21.105 8.134 22 12 22C15.866 22 19 21.105 19 20V4C19 2.895 15.866 2 12 2Z" stroke="#fff" stroke-width="1.5" stroke-linecap="round" stroke-linejoin="round"/>
  <path d="M19 8C19 9.105 15.866 10 12 10C8.134 10 5 9.105 5 8" stroke="#fff" stroke-width="1.5" stroke-linecap="round" stroke-linejoin="round"/>
  <path d="M19 14C19 15.105 15.866 16 12 16C8.134 16 5 15.105 5 14" stroke="#fff" stroke-width="1.5" stroke-linecap="round" stroke-linejoin="round"/>
  <path d="M5 4C5 5.105 8.134 6 12 6C15.866 6 19 5.105 19 4" stroke="#fff" stroke-width="1.5" stroke-linecap="round" stroke-linejoin="round"/>
</svg>
